<svg width="32" height="32" viewBox="0 0 32 32" fill="none" xmlns="http://www.w3.org/2000/svg">
<g id="Logo">
<circle id="bg" cx="16" cy="16" r="15.5" fill="url(#paint0_linear_5149_35837)" stroke="#5AC782"/>
<path id="logo-bling" d="M23 9.3129C22.1128 10.1857 21.1827 11.4221 20.2095 13.0221C19.2424 14.608 18.4062 16.27 17.7093 17.9916C17.3473 18.8797 17.043 19.7901 16.7981 20.7173C16.4054 20.6724 15.9134 20.6298 15.3223 20.5893C14.7889 20.5529 14.2536 20.5504 13.7198 20.582C13.5819 18.848 13.7356 16.829 14.1809 14.5248C14.3738 13.4267 14.6697 12.3492 15.0649 11.3065C15.2146 10.894 15.4293 10.5081 15.7011 10.1634C14.7498 9.94023 14.0656 9.7911 13.6438 9.72233C13.693 9.30936 13.8097 8.90725 13.9892 8.53199C14.0564 8.36018 14.1379 8.19432 14.233 8.03614C14.249 7.99557 14.2907 7.98968 14.3581 8.01585C14.3685 8.01991 14.4215 8.04547 14.5089 8.08869C14.6005 8.13332 14.6661 8.16376 14.7135 8.18303C15.5548 8.52334 16.9051 8.80663 18.7642 9.03292C20.5607 9.24825 21.9544 9.31175 22.9454 9.22343C22.9623 9.23107 22.9765 9.24368 22.9861 9.25959C22.9957 9.2755 23.0002 9.29396 22.999 9.31249L23 9.3129ZM16.5503 24.3299C16.3971 24.7065 15.8392 24.923 14.8821 24.9852C14.0619 25.0317 13.2391 24.9682 12.4358 24.7963C12.1475 24.7391 11.8651 24.656 11.5918 24.548C11.0286 24.349 10.5518 23.9613 10.2426 23.4508C10.1136 23.2524 10.0333 23.0263 10.0084 22.7911C9.98341 22.5558 10.0144 22.318 10.0989 22.097C10.2976 21.607 10.9171 21.3761 11.9573 21.4179C12.7948 21.4509 13.6206 21.6264 14.399 21.9369C15.0947 22.1865 15.7177 22.6043 16.2124 23.1528C16.5765 23.5894 16.6907 23.9846 16.5501 24.3295L16.5503 24.3299Z" fill="white"/>
</g>
<defs>
<linearGradient id="paint0_linear_5149_35837" x1="16" y1="0" x2="16" y2="32" gradientUnits="userSpaceOnUse">
<stop stop-color="#35AE62"/>
<stop offset="1" stop-color="#449658"/>
</linearGradient>
</defs>
</svg>
